<svg xmlns="http://www.w3.org/2000/svg" xmlns:xlink="http://www.w3.org/1999/xlink" version="1.1" id="v-2" width="1288" height="545" class="waiting"><defs id="v-4" class="waiting"><marker id="v-2-479506292" orient="auto" overflow="visible" markerUnits="userSpaceOnUse" class="waiting"><path id="v-163" stroke="black" fill="none" transform="rotate(180)" d="m 10,-6 l 0,12" stroke-width="1.2" class="waiting"/></marker><marker id="v-21429980022" orient="auto" overflow="visible" markerUnits="userSpaceOnUse" class="waiting"><path id="v-171" stroke="black" fill="none" transform="rotate(180)" d="m 10,-6 l -10,6 10,6" stroke-width="1.2" class="waiting"/></marker><marker id="v-2-933205445" orient="auto" overflow="visible" markerUnits="userSpaceOnUse" class="waiting"><path id="v-193" stroke="black" fill="black" transform="rotate(180)" d="m 12,-6 l -12,6 12,6 z" stroke-width="1.2" class="waiting"/></marker></defs><g id="v-3" class="joint-viewport waiting" style="cursor: move;" transform="matrix(1,0,0,1,-291,-171)"><g model-id="76056617-d936-4077-a4cc-561bfc3b3874" id="j_130" class="joint-cell joint-type-container joint-element joint-theme-default waiting" data-type="Container" transform="translate(555,646)" style="cursor: move;"><g id="v-768" style="cursor: move;" class="waiting"><rect class="boundary waiting" id="v-771" fill="rgb(242,242,242)" height="120" rx="100" ry="40" stroke="black" stroke-dasharray="10,5,4,4" stroke-width="2" width="200" display="none" style=""/><circle class="element actorSymbol waiting" id="v-769" cx="40" cy="40" fill="rgb(205,254,205)" r="40" stroke="black" stroke-width="2" transform="translate(-20, -20)" style=""/><path class="waiting"/><text class="content waiting" id="v-770" font-size="12" xml:space="preserve" y="0.8em" fill="#000000" font-family="Arial, helvetica, sans-serif" text-anchor="middle" transform="matrix(1,0,0,1,20,14.4)"><tspan dy="0" class="v-line waiting">Professores</tspan></text></g></g><g model-id="031ef82b-194f-4913-aeac-d8caa3a5b8ed" id="j_129" class="joint-cell joint-type-container joint-element joint-theme-default waiting" data-type="Container" transform="translate(1425,584)" style="cursor: move;"><g id="v-758" style="cursor: move;" class="waiting"><rect class="boundary waiting" id="v-761" fill="rgb(242,242,242)" height="120" rx="100" ry="40" stroke="black" stroke-dasharray="10,5,4,4" stroke-width="2" width="200" display="none" style=""/><circle class="element actorSymbol waiting" id="v-759" cx="40" cy="40" fill="rgb(205,254,205)" r="40" stroke="black" stroke-width="2" transform="translate(-20, -20)" style=""/><path class="waiting"/><text class="content waiting" id="v-760" font-size="12" xml:space="preserve" y="0.8em" fill="#000000" font-family="Arial, helvetica, sans-serif" text-anchor="middle" transform="matrix(1,0,0,1,20,14.4)"><tspan dy="0" class="v-line waiting">UFPE</tspan></text></g></g><g model-id="1d4a29fa-38f7-4a92-8b6f-4d18f07f8506" id="j_127" class="joint-cell joint-type-container joint-element joint-theme-default waiting" data-type="Container" transform="translate(601,294)" style="cursor: move;"><g id="v-738" style="cursor: move;" class="waiting"><rect class="boundary waiting" id="v-741" fill="rgb(242,242,242)" height="130" rx="100" ry="40" stroke="black" stroke-dasharray="10,5,4,4" stroke-width="2" width="210" display="none" style=""/><circle class="element actorSymbol waiting" id="v-739" cx="40" cy="40" fill="rgb(205,254,205)" r="40" stroke="black" stroke-width="2" transform="translate(-20, -20)" style=""/><path class="waiting"/><text class="content waiting" id="v-740" font-size="12" xml:space="preserve" y="0.8em" fill="#000000" font-family="Arial, helvetica, sans-serif" text-anchor="middle" transform="matrix(1,0,0,1,20,14.4)"><tspan dy="0" class="v-line waiting">Atletas</tspan></text></g></g><g model-id="76ea7633-41d1-4731-b2f3-39cc25d5245d" id="j_126" class="joint-cell joint-type-container joint-element joint-theme-default waiting" data-type="Container" transform="translate(1240,312)" style="cursor: move;"><g id="v-728" style="cursor: move;" class="waiting"><rect class="boundary waiting" id="v-731" fill="rgb(242,242,242)" height="130" rx="100" ry="40" stroke="black" stroke-dasharray="10,5,4,4" stroke-width="2" width="210" display="none" style=""/><circle class="element actorSymbol waiting" id="v-729" cx="40" cy="40" fill="rgb(205,254,205)" r="40" stroke="black" stroke-width="2" transform="translate(-20, -20)" style=""/><path class="waiting"/><text class="content waiting" id="v-730" font-size="12" xml:space="preserve" y="0.8em" fill="#000000" font-family="Arial, helvetica, sans-serif" text-anchor="middle" transform="matrix(1,0,0,1,20,14.4)"><tspan dy="0" class="v-line waiting">SEGEL</tspan></text></g></g><g model-id="1ca4b32a-e984-42ec-b71c-9ab018a74d49" id="j_189" class="joint-cell joint-type-dependencylink joint-link joint-theme-default waiting" data-type="DependencyLink" style="cursor: move;"><path joint-selector="connection-wrap" id="v-1229" fill="none" stroke="rgba(190, 190, 190, 0)" stroke-linecap="round" stroke-width="30" d="M 1504.81 433.01 L 1458.99 564" class="c-connection-wrap waiting"/><path joint-selector="line" id="v-1228" fill="none" stroke="black" stroke-width="1" d="M 1504.81 433.01 L 1458.99 564" class="waiting"/><path joint-selector="label" id="v-1230" d="m 0,-10 l 0,20 4,0 c 10,0, 10 -20, 0,-20 l -4,0" fill="white" stroke="black" stroke-width="2" transform="matrix(-0.33018025325562295,0.9439178991628735,-0.9439178991628735,-0.33018025325562295,1481.9,498.5)" class="waiting"/></g><g model-id="75ad7468-a347-4108-b42b-7ef9bd3591aa" id="j_188" class="joint-cell joint-type-dependencylink joint-link joint-theme-default waiting" data-type="DependencyLink" style="cursor: move;"><path joint-selector="connection-wrap" class="c-connection-wrap waiting" id="v-1226" fill="none" stroke="rgba(190, 190, 190, 0)" stroke-linecap="round" stroke-width="30" d="M 1300 345.04 L 1464.61 398.72"/><path joint-selector="line" id="v-1225" fill="none" stroke="black" stroke-width="1" d="M 1300 345.04 L 1464.61 398.72" class="waiting"/><path joint-selector="label" id="v-1227" d="m 0,-10 l 0,20 4,0 c 10,0, 10 -20, 0,-20 l -4,0" fill="white" stroke="black" stroke-width="2" transform="matrix(0.9507250270563278,0.3100353575461109,-0.3100353575461109,0.9507250270563278,1382.3,371.9)" class="waiting"/></g><g model-id="3e7f58f5-d42e-410c-ad4f-48fa05d315f3" id="j_185" class="joint-cell joint-type-dependencylink joint-link joint-theme-default waiting" data-type="DependencyLink" style="cursor: move;"><path joint-selector="connection-wrap" id="v-1146" fill="none" stroke="rgba(190, 190, 190, 0)" stroke-linecap="round" stroke-width="30" d="M 1056.49 402.15 L 1220 345.79" class="c-connection-wrap waiting"/><path joint-selector="line" id="v-1145" fill="none" stroke="black" stroke-width="1" d="M 1056.49 402.15 L 1220 345.79" class="waiting"/><path joint-selector="label" id="v-1147" d="m 0,-10 l 0,20 4,0 c 10,0, 10 -20, 0,-20 l -4,0" fill="white" stroke="black" stroke-width="2" transform="matrix(0.9454136146163272,-0.32587282381028765,0.32587282381028765,0.9454136146163272,1138.2,374)" class="waiting"/></g><g model-id="926bd473-9e68-410d-93f1-bc4da18d9fdd" id="j_184" class="joint-cell joint-type-dependencylink joint-link joint-theme-default waiting" data-type="DependencyLink" style="cursor: move;"><path joint-selector="connection-wrap" class="c-connection-wrap waiting" id="v-1143" fill="none" stroke="rgba(190, 190, 190, 0)" stroke-linecap="round" stroke-width="30" d="M 661 324.96 L 955.78 405.71"/><path joint-selector="line" id="v-1142" fill="none" stroke="black" stroke-width="1" d="M 661 324.96 L 955.78 405.71" class="waiting"/><path joint-selector="label" id="v-1144" d="m 0,-10 l 0,20 4,0 c 10,0, 10 -20, 0,-20 l -4,0" fill="white" stroke="black" stroke-width="2" transform="matrix(0.9644679961490403,0.2641997055340045,-0.2641997055340045,0.9644679961490403,808.4,365.3)" class="waiting"/></g><g model-id="50e6bb08-d65d-4d2d-a66b-6dd6734b2909" id="j_182" class="joint-cell joint-type-dependencylink joint-link joint-theme-default waiting" data-type="DependencyLink" style="cursor: move;"><path joint-selector="connection-wrap" id="v-1110" fill="none" stroke="rgba(190, 190, 190, 0)" stroke-linecap="round" stroke-width="30" d="M 1032.34 491.19 L 1220 359.97" class="c-connection-wrap waiting"/><path joint-selector="line" id="v-1109" fill="none" stroke="black" stroke-width="1" d="M 1032.34 491.19 L 1220 359.97" class="waiting"/><path joint-selector="label" id="v-1111" d="m 0,-10 l 0,20 4,0 c 10,0, 10 -20, 0,-20 l -4,0" fill="white" stroke="black" stroke-width="2" transform="matrix(0.8195230616590922,-0.5730462035550954,0.5730462035550954,0.8195230616590922,1126.2,425.6)" class="waiting"/></g><g model-id="b8e21d3f-70f4-4d8e-95ac-ad4e1b3e77a2" id="j_181" class="joint-cell joint-type-dependencylink joint-link joint-theme-default waiting" data-type="DependencyLink" style="cursor: move;"><path joint-selector="connection-wrap" class="c-connection-wrap waiting" id="v-1107" fill="none" stroke="rgba(190, 190, 190, 0)" stroke-linecap="round" stroke-width="30" d="M 661 334.43 L 969.31 491.89"/><path joint-selector="line" id="v-1106" fill="none" stroke="black" stroke-width="1" d="M 661 334.43 L 969.31 491.89" class="waiting"/><path joint-selector="label" id="v-1108" d="m 0,-10 l 0,20 4,0 c 10,0, 10 -20, 0,-20 l -4,0" fill="white" stroke="black" stroke-width="2" transform="matrix(0.8905758837590347,0.45483469004333243,-0.45483469004333243,0.8905758837590347,815.2,413.2)" class="waiting"/></g><g model-id="82a6b965-f9ed-418a-8fcd-dbd84c20fada" id="j_179" class="joint-cell joint-type-dependencylink joint-link joint-theme-default waiting" data-type="DependencyLink" style="cursor: move;"><path joint-selector="connection-wrap" id="v-1050" fill="none" stroke="rgba(190, 190, 190, 0)" stroke-linecap="round" stroke-width="30" d="M 1260.19 528.01 L 1405 587.55" class="c-connection-wrap waiting"/><path joint-selector="line" id="v-1049" fill="none" stroke="black" stroke-width="1" d="M 1260.19 528.01 L 1405 587.55" class="waiting"/><path joint-selector="label" id="v-1051" d="m 0,-10 l 0,20 4,0 c 10,0, 10 -20, 0,-20 l -4,0" fill="white" stroke="black" stroke-width="2" transform="matrix(0.9248750609066972,0.3802711160643589,-0.3802711160643589,0.9248750609066972,1332.6,557.8)" class="waiting"/></g><g model-id="fc0ceaea-56c2-4ff8-993d-d0d3c9178967" id="j_178" class="joint-cell joint-type-dependencylink joint-link joint-theme-default waiting" data-type="DependencyLink" style="cursor: move;"><path joint-selector="connection-wrap" class="c-connection-wrap waiting" id="v-1047" fill="none" stroke="rgba(190, 190, 190, 0)" stroke-linecap="round" stroke-width="30" d="M 1249.6 372 L 1218.9 489.99"/><path joint-selector="line" id="v-1046" fill="none" stroke="black" stroke-width="1" d="M 1249.6 372 L 1218.9 489.99" class="waiting"/><path joint-selector="label" id="v-1048" d="m 0,-10 l 0,20 4,0 c 10,0, 10 -20, 0,-20 l -4,0" fill="white" stroke="black" stroke-width="2" transform="matrix(-0.2518074832399987,0.9677773459759935,-0.9677773459759935,-0.2518074832399987,1234.3,431)" class="waiting"/></g><g model-id="ab0b96bb-49a6-4a1d-bd72-e3c323a1a28c" id="j_176" class="joint-cell joint-type-dependencylink joint-link joint-theme-default waiting" data-type="DependencyLink" style="cursor: move;"><path joint-selector="connection-wrap" id="v-990" fill="none" stroke="rgba(190, 190, 190, 0)" stroke-linecap="round" stroke-width="30" d="M 1044.82 288.13 L 1220 323.84" class="c-connection-wrap waiting"/><path joint-selector="line" id="v-989" fill="none" stroke="black" stroke-width="1" d="M 1044.82 288.13 L 1220 323.84" class="waiting"/><path joint-selector="label" id="v-991" d="m 0,-10 l 0,20 4,0 c 10,0, 10 -20, 0,-20 l -4,0" fill="white" stroke="black" stroke-width="2" transform="matrix(0.9798489871345655,0.19973973668593348,-0.19973973668593348,0.9798489871345655,1132.4,306)" class="waiting"/></g><g model-id="a6803947-c452-4b0a-bdd4-bfc1cc92f774" id="j_175" class="joint-cell joint-type-dependencylink joint-link joint-theme-default waiting" data-type="DependencyLink" style="cursor: move;"><path joint-selector="connection-wrap" class="c-connection-wrap waiting" id="v-987" fill="none" stroke="rgba(190, 190, 190, 0)" stroke-linecap="round" stroke-width="30" d="M 661 310.46 L 965.11 283.53"/><path joint-selector="line" id="v-986" fill="none" stroke="black" stroke-width="1" d="M 661 310.46 L 965.11 283.53" class="waiting"/><path joint-selector="label" id="v-988" d="m 0,-10 l 0,20 4,0 c 10,0, 10 -20, 0,-20 l -4,0" fill="white" stroke="black" stroke-width="2" transform="matrix(0.9961020407196316,-0.08820841498510949,0.08820841498510949,0.9961020407196316,813.1,297)" class="waiting"/></g><g model-id="dcf45c13-6391-446d-87e8-7704b3e67e7c" id="j_169" class="joint-cell joint-type-dependencylink joint-link joint-theme-default waiting" data-type="DependencyLink" style="cursor: move;"><path joint-selector="connection-wrap" id="v-958" fill="none" stroke="rgba(190, 190, 190, 0)" stroke-linecap="round" stroke-width="30" d="M 743.95 488.61 L 613.1 626" class="c-connection-wrap waiting"/><path joint-selector="line" id="v-957" fill="none" stroke="black" stroke-width="1" d="M 743.95 488.61 L 613.1 626" class="waiting"/><path joint-selector="label" id="v-959" d="m 0,-10 l 0,20 4,0 c 10,0, 10 -20, 0,-20 l -4,0" fill="white" stroke="black" stroke-width="2" transform="matrix(-0.6896616628944736,0.7241317495688401,-0.7241317495688401,-0.6896616628944736,678.5,557.3)" class="waiting"/></g><g model-id="29c13dd7-186a-46a2-88e7-57e90ac1c932" id="j_168" class="joint-cell joint-type-dependencylink joint-link joint-theme-default waiting" data-type="DependencyLink" style="cursor: move;"><path joint-selector="connection-wrap" class="c-connection-wrap waiting" id="v-955" fill="none" stroke="rgba(190, 190, 190, 0)" stroke-linecap="round" stroke-width="30" d="M 654.5 354 L 745.45 462.59"/><path joint-selector="line" id="v-954" fill="none" stroke="black" stroke-width="1" d="M 654.5 354 L 745.45 462.59" class="waiting"/><path joint-selector="label" id="v-956" d="m 0,-10 l 0,20 4,0 c 10,0, 10 -20, 0,-20 l -4,0" fill="white" stroke="black" stroke-width="2" transform="matrix(0.642092027997164,0.7666275677162211,-0.7666275677162211,0.642092027997164,700,408.3)" class="waiting"/></g><g model-id="98bbd28a-a87e-48ad-b5a6-fe72df035c1d" id="j_163" class="joint-cell joint-type-dependencylink joint-link joint-theme-default waiting" data-type="DependencyLink" style="cursor: move;"><path joint-selector="connection-wrap" id="v-930" fill="none" stroke="rgba(190, 190, 190, 0)" stroke-linecap="round" stroke-width="30" d="M 618.4 456.09 L 620.27 354" class="c-connection-wrap waiting"/><path joint-selector="line" id="v-929" fill="none" stroke="black" stroke-width="1" d="M 618.4 456.09 L 620.27 354" class="waiting"/><path joint-selector="label" id="v-931" d="m 0,-10 l 0,20 4,0 c 10,0, 10 -20, 0,-20 l -4,0" fill="white" stroke="black" stroke-width="2" transform="matrix(0.01831406752229463,-0.9998322834009656,0.9998322834009656,0.01831406752229463,619.3,405)" class="waiting"/></g><g model-id="d79d4069-de56-499e-8a44-928b9aecd722" id="j_162" class="joint-cell joint-type-dependencylink joint-link joint-theme-default waiting" data-type="DependencyLink" style="cursor: move;"><path joint-selector="connection-wrap" class="c-connection-wrap waiting" id="v-927" fill="none" stroke="rgba(190, 190, 190, 0)" stroke-linecap="round" stroke-width="30" d="M 585.8 626 C 599.6766666666667 576.4908333333334 613.5533333333334 526.9816666666668 619 503 C 624.4466666666666 479.01833333333326 621.4633333333334 480.56416666666667 618.48 482.11"/><path joint-selector="line" id="v-926" fill="none" stroke="black" stroke-width="1" d="M 585.8 626 C 599.6766666666667 576.4908333333334 613.5533333333334 526.9816666666668 619 503 C 624.4466666666666 479.01833333333326 621.4633333333334 480.56416666666667 618.48 482.11" class="waiting"/><path joint-selector="label" id="v-928" d="m 0,-10 l 0,20 4,0 c 10,0, 10 -20, 0,-20 l -4,0" fill="white" stroke="black" stroke-width="2" transform="matrix(0.26271568003496054,-0.9648732929580797,0.9648732929580797,0.26271568003496054,606.2,552.7)" class="waiting"/></g><g model-id="e66da4fe-991e-4d96-aece-c7185217f617" id="j_160" class="joint-cell joint-type-dependencylink joint-link joint-theme-default waiting" data-type="DependencyLink" style="cursor: move;"><path joint-selector="connection-wrap" id="v-916" fill="none" stroke="rgba(190, 190, 190, 0)" stroke-linecap="round" stroke-width="30" d="M 496.62 442.59 L 582.31 354" class="c-connection-wrap waiting"/><path joint-selector="line" id="v-915" fill="none" stroke="black" stroke-width="1" d="M 496.62 442.59 L 582.31 354" class="waiting"/><path joint-selector="label" id="v-917" d="m 0,-10 l 0,20 4,0 c 10,0, 10 -20, 0,-20 l -4,0" fill="white" stroke="black" stroke-width="2" transform="matrix(0.695244349367201,-0.7187734654764164,0.7187734654764164,0.695244349367201,539.5,398.3)" class="waiting"/></g><g model-id="8d87a0f6-c189-4b20-a598-4b81bee97ea9" id="j_159" class="joint-cell joint-type-dependencylink joint-link joint-theme-default waiting" data-type="DependencyLink" style="cursor: move;"><path joint-selector="connection-wrap" class="c-connection-wrap waiting" id="v-913" fill="none" stroke="rgba(190, 190, 190, 0)" stroke-linecap="round" stroke-width="30" d="M 556.06 626 L 487.24 480.61"/><path joint-selector="line" id="v-912" fill="none" stroke="black" stroke-width="1" d="M 556.06 626 L 487.24 480.61" class="waiting"/><path joint-selector="label" id="v-914" d="m 0,-10 l 0,20 4,0 c 10,0, 10 -20, 0,-20 l -4,0" fill="white" stroke="black" stroke-width="2" transform="matrix(-0.42783770940189986,-0.903855571656078,0.903855571656078,-0.42783770940189986,521.7,553.3)" class="waiting"/></g><g model-id="706f1f6f-de80-4be7-aa0b-b572d994c721" id="j_157" class="joint-cell joint-type-dependencylink joint-link joint-theme-default waiting" data-type="DependencyLink" style="cursor: move;"><path joint-selector="connection-wrap" id="v-902" fill="none" stroke="rgba(190, 190, 190, 0)" stroke-linecap="round" stroke-width="30" d="M 389.41 436.79 L 581 335.21" class="c-connection-wrap waiting"/><path joint-selector="line" id="v-901" fill="none" stroke="black" stroke-width="1" d="M 389.41 436.79 L 581 335.21" class="waiting"/><path joint-selector="label" id="v-903" d="m 0,-10 l 0,20 4,0 c 10,0, 10 -20, 0,-20 l -4,0" fill="white" stroke="black" stroke-width="2" transform="matrix(0.8835016000828131,-0.4684281403279579,0.4684281403279579,0.8835016000828131,485.2,386)" class="waiting"/></g><g model-id="28d9f026-3be5-430a-b807-a9e34e991fae" id="j_156" class="joint-cell joint-type-dependencylink joint-link joint-theme-default waiting" data-type="DependencyLink" style="cursor: move;"><path joint-selector="connection-wrap" class="c-connection-wrap waiting" id="v-899" fill="none" stroke="rgba(190, 190, 190, 0)" stroke-linecap="round" stroke-width="30" d="M 535 628.03 L 373.59 474.81"/><path joint-selector="line" id="v-898" fill="none" stroke="black" stroke-width="1" d="M 535 628.03 L 373.59 474.81" class="waiting"/><path joint-selector="label" id="v-900" d="m 0,-10 l 0,20 4,0 c 10,0, 10 -20, 0,-20 l -4,0" fill="white" stroke="black" stroke-width="2" transform="matrix(-0.72526748676082,-0.6884671906835095,0.6884671906835095,-0.72526748676082,454.3,551.4)" class="waiting"/></g><g model-id="d284d149-5449-4041-9592-2cf8d427572f" id="j_139" class="joint-cell joint-type-dependencylink joint-link joint-theme-default waiting" data-type="DependencyLink" style="cursor: move;"><path joint-selector="connection-wrap" id="v-818" fill="none" stroke="rgba(190, 190, 190, 0)" stroke-linecap="round" stroke-width="30" d="M 1036.27 225.13 L 1220 312.89" class="c-connection-wrap waiting"/><path joint-selector="line" id="v-817" fill="none" stroke="black" stroke-width="1" d="M 1036.27 225.13 L 1220 312.89" class="waiting"/><path joint-selector="label" id="v-819" d="m 0,-10 l 0,20 4,0 c 10,0, 10 -20, 0,-20 l -4,0" fill="white" stroke="black" stroke-width="2" transform="matrix(0.9023460526695501,0.43101229823716325,-0.43101229823716325,0.9023460526695501,1128.1,269)" class="waiting"/></g><g model-id="c308075c-7e8f-4762-a5c7-b6ba74ac0163" id="j_138" class="joint-cell joint-type-dependencylink joint-link joint-theme-default waiting" data-type="DependencyLink" style="cursor: move;"><path joint-selector="connection-wrap" class="c-connection-wrap waiting" id="v-815" fill="none" stroke="rgba(190, 190, 190, 0)" stroke-linecap="round" stroke-width="30" d="M 661 302.57 L 958.26 217.64"/><path joint-selector="line" id="v-814" fill="none" stroke="black" stroke-width="1" d="M 661 302.57 L 958.26 217.64" class="waiting"/><path joint-selector="label" id="v-816" d="m 0,-10 l 0,20 4,0 c 10,0, 10 -20, 0,-20 l -4,0" fill="white" stroke="black" stroke-width="2" transform="matrix(0.9615252254721249,-0.27471665544844426,0.27471665544844426,0.9615252254721249,809.6,260.1)" class="waiting"/></g><g model-id="3ec7bc66-683e-4466-8035-867477dbbfcc" id="j_136" class="joint-cell joint-type-dependencylink joint-link joint-theme-default waiting" data-type="DependencyLink" style="cursor: move;"><path joint-selector="connection-wrap" id="v-804" fill="none" stroke="rgba(190, 190, 190, 0)" stroke-linecap="round" stroke-width="30" d="M 1050.66 345.76 L 1220 334.63" class="c-connection-wrap waiting"/><path joint-selector="line" id="v-803" fill="none" stroke="black" stroke-width="1" d="M 1050.66 345.76 L 1220 334.63" class="waiting"/><path joint-selector="label" id="v-805" d="m 0,-10 l 0,20 4,0 c 10,0, 10 -20, 0,-20 l -4,0" fill="white" stroke="black" stroke-width="2" transform="matrix(0.9978470277671929,-0.065584366858108,0.065584366858108,0.9978470277671929,1135.3,340.2)" class="waiting"/></g><g model-id="a3a801eb-b02d-4836-94ba-ad778642bcb0" id="j_135" class="joint-cell joint-type-dependencylink joint-link joint-theme-default waiting" data-type="DependencyLink" style="cursor: move;"><path joint-selector="connection-wrap" class="c-connection-wrap waiting" id="v-801" fill="none" stroke="rgba(190, 190, 190, 0)" stroke-linecap="round" stroke-width="30" d="M 661 317.68 L 952.27 344.47"/><path joint-selector="line" id="v-800" fill="none" stroke="black" stroke-width="1" d="M 661 317.68 L 952.27 344.47" class="waiting"/><path joint-selector="label" id="v-802" d="m 0,-10 l 0,20 4,0 c 10,0, 10 -20, 0,-20 l -4,0" fill="white" stroke="black" stroke-width="2" transform="matrix(0.9957968097588225,0.09158992124765439,-0.09158992124765439,0.9957968097588225,806.6,331.1)" class="waiting"/></g><g model-id="400ecb40-27b3-428c-a09a-5ae44f4ba29d" id="j_133" class="joint-cell joint-type-dependencylink joint-link joint-theme-default waiting" data-type="DependencyLink" style="cursor: move;"><path joint-selector="connection-wrap" class="c-connection-wrap waiting" id="v-790" fill="none" stroke="rgba(190, 190, 190, 0)" stroke-linecap="round" stroke-width="30" d="M 1360.36 486.21 C 1357.5095555555554 491.05466666666666 1354.659111111111 495.8993333333333 1359 503 C 1363.340888888889 510.1006666666667 1374.873111111111 519.4573333333334 1385 530 C 1395.126888888889 540.5426666666666 1403.8484444444443 552.2713333333334 1412.57 564"/><path joint-selector="line" id="v-789" fill="none" stroke="black" stroke-width="1" d="M 1360.36 486.21 C 1357.5095555555554 491.05466666666666 1354.659111111111 495.8993333333333 1359 503 C 1363.340888888889 510.1006666666667 1374.873111111111 519.4573333333334 1385 530 C 1395.126888888889 540.5426666666666 1403.8484444444443 552.2713333333334 1412.57 564" class="waiting"/><path joint-selector="label" id="v-791" d="m 0,-10 l 0,20 4,0 c 10,0, 10 -20, 0,-20 l -4,0" fill="white" stroke="black" stroke-width="2" transform="matrix(0.7121107680915079,0.702067129246287,-0.702067129246287,0.7121107680915079,1380.9,525.8)" class="waiting"/></g><g model-id="bb0f8d57-32fe-4c4b-9e3e-2d572ba9d084" id="j_132" class="joint-cell joint-type-dependencylink joint-link joint-theme-default waiting" data-type="DependencyLink" style="cursor: move;"><path joint-selector="connection-wrap" class="c-connection-wrap waiting" id="v-787" fill="none" stroke="rgba(190, 190, 190, 0)" stroke-linecap="round" stroke-width="30" d="M 1288.84 372 L 1351.72 459.19"/><path joint-selector="line" id="v-786" fill="none" stroke="black" stroke-width="1" d="M 1288.84 372 L 1351.72 459.19" class="waiting"/><path joint-selector="label" id="v-788" d="m 0,-10 l 0,20 4,0 c 10,0, 10 -20, 0,-20 l -4,0" fill="white" stroke="black" stroke-width="2" transform="matrix(0.5849368200555961,0.8110788596328025,-0.8110788596328025,0.5849368200555961,1320.3,415.6)" class="waiting"/></g><g model-id="6f2e8d92-44bf-4995-b26f-e37206e5a979" id="j_131" class="joint-cell joint-type-resource joint-element joint-theme-default waiting" data-type="Resource" fill="#ffffff" stroke="none" transform="translate(1304,448)" style="cursor: move;"><g class="scalable waiting" transform="scale(0.8816105769230769,1.65)" style="cursor: move;"><rect class="element waiting" id="v-778" fill="rgb(205,254,205)" height="30" rx="0" stroke="black" stroke-width="2" vector-effect="non-scaling-stroke" width="130"/></g><text class="content waiting" id="v-779" font-size="12" xml:space="preserve" y="0.8em" font-weight="bold" fill="#000000" text-anchor="middle" font-family="Arial, helvetica, sans-serif" transform="matrix(1,0,0,1,57.3,13.6)"><tspan dy="0" class="v-line waiting">Áreas para</tspan><tspan dy="1em" x="0" class="v-line waiting">lazer/esportes</tspan></text></g><g model-id="dd6e7a12-09b8-4d3a-9a8b-220f5459918d" id="j_134" class="joint-cell joint-type-resource joint-element joint-theme-default waiting" data-type="Resource" fill="#ffffff" stroke="none" transform="translate(947,325)" style="cursor: move;"><g class="scalable waiting" transform="scale(0.8354567307692308,1.6)" style="cursor: move;"><rect class="element waiting" id="v-792" fill="rgb(205,254,205)" height="30" rx="0" stroke="black" stroke-width="2" vector-effect="non-scaling-stroke" width="130"/></g><text class="content waiting" id="v-793" font-size="12" xml:space="preserve" y="0.8em" font-weight="bold" fill="#000000" text-anchor="middle" font-family="Arial, helvetica, sans-serif" transform="matrix(1,0,0,1,54.3,6.4)"><tspan dy="0" class="v-line waiting">Documentos</tspan><tspan dy="1em" x="0" class="v-line waiting">necessários para</tspan><tspan dy="1em" x="0" class="v-line waiting">cadastro</tspan></text></g><g model-id="ccf22315-2b90-49eb-8725-9c584fb53c86" id="j_137" class="joint-cell joint-type-task joint-element joint-theme-default waiting" data-type="Task" fill="#ffffff" stroke="none" transform="translate(945,181)" style="cursor: move;"><g class="scalable waiting" transform="scale(0.8085336538461538,1.4166666666666667)" style="cursor: move;"><polygon class="element waiting" id="v-806" fill="rgb(205,254,205)" height="36" points="0,18 15,0 115,0 130,18 115,36 15,36" stroke="black" stroke-width="2" vector-effect="non-scaling-stroke" width="130"/></g><text class="content waiting" id="v-807" font-size="12" xml:space="preserve" y="0.8em" font-weight="bold" text-anchor="middle" fill="#000000" font-family="Arial, helvetica, sans-serif" transform="matrix(1,0,0,1,52.6,7.9)"><tspan dy="0" class="v-line waiting">Preencher</tspan><tspan dy="1em" x="0" class="v-line waiting">formulário de</tspan><tspan dy="1em" x="0" class="v-line waiting">cadastro</tspan></text></g><g model-id="c556aec1-216f-4cd3-8322-64cdbfb240f1" id="j_155" class="joint-cell joint-type-task joint-element joint-theme-default waiting" data-type="Task" fill="#ffffff" stroke="none" transform="translate(301,432)" style="cursor: move;"><g class="scalable waiting" transform="scale(0.8067089374248798,1.3233903249104817)" style="cursor: move;"><polygon class="element waiting" id="v-890" fill="rgb(205,254,205)" height="36" points="0,18 15,0 115,0 130,18 115,36 15,36" stroke="black" stroke-width="2" vector-effect="non-scaling-stroke" width="130"/></g><text class="content waiting" id="v-891" font-size="12" xml:space="preserve" y="0.8em" font-weight="bold" text-anchor="middle" fill="#000000" font-family="Arial, helvetica, sans-serif" transform="matrix(1,0,0,1,52.4,6.2)"><tspan dy="0" class="v-line waiting">Auxílio no</tspan><tspan dy="1em" x="0" class="v-line waiting">controle dos</tspan><tspan dy="1em" x="0" class="v-line waiting">índices</tspan></text></g><g model-id="3a8c71b5-b95c-421d-aab5-68e2f31c2ac4" id="j_158" class="joint-cell joint-type-task joint-element joint-theme-default waiting" data-type="Task" fill="#ffffff" stroke="none" transform="translate(420,437)" style="cursor: move;"><g class="scalable waiting" transform="scale(0.8902752216045673,1.3688447740342882)" style="cursor: move;"><polygon class="element waiting" id="v-904" fill="rgb(205,254,205)" height="36" points="0,18 15,0 115,0 130,18 115,36 15,36" stroke="black" stroke-width="2" vector-effect="non-scaling-stroke" width="130"/></g><text class="content waiting" id="v-905" font-size="12" xml:space="preserve" y="0.8em" font-weight="bold" text-anchor="middle" fill="#000000" font-family="Arial, helvetica, sans-serif" transform="matrix(1,0,0,1,57.9,7)"><tspan dy="0" class="v-line waiting">Acompanhar</tspan><tspan dy="1em" x="0" class="v-line waiting">desenvolvimento</tspan><tspan dy="1em" x="0" class="v-line waiting">do atleta</tspan></text></g><g model-id="ac1cb632-ffa7-4fe2-8e1e-c31a616a6b25" id="j_161" class="joint-cell joint-type-task joint-element joint-theme-default waiting" data-type="Task" fill="#ffffff" stroke="none" transform="translate(562,447)" style="cursor: move;"><g class="scalable waiting" transform="scale(0.8609046349158653,1.2299558851453993)" style="cursor: move;"><polygon class="element waiting" id="v-918" fill="rgb(205,254,205)" height="36" points="0,18 15,0 115,0 130,18 115,36 15,36" stroke="black" stroke-width="2" vector-effect="non-scaling-stroke" width="130"/></g><text class="content waiting" id="v-919" font-size="12" xml:space="preserve" y="0.8em" font-weight="bold" text-anchor="middle" fill="#000000" font-family="Arial, helvetica, sans-serif" transform="matrix(1,0,0,1,56,10.5)"><tspan dy="0" class="v-line waiting">Monitorar saúde</tspan><tspan dy="1em" x="0" class="v-line waiting">física</tspan></text></g><g model-id="56d440ba-c574-4d34-871f-74192b9e9422" id="j_167" class="joint-cell joint-type-goal joint-element joint-theme-default waiting" data-type="Goal" fill="#ffffff" stroke="none" transform="translate(696,455)" style="cursor: move;"><g class="scalable waiting" transform="scale(0.9301354041466346,1.3759470621744792)" style="cursor: move;"><rect class="element waiting" id="v-946" fill="rgb(205,254,205)" height="30" rx="20" stroke="black" stroke-width="2" vector-effect="non-scaling-stroke" width="130"/></g><text class="content waiting" id="v-947" font-size="12" xml:space="preserve" y="0.8em" font-weight="bold" fill="#000000" text-anchor="middle" font-family="Arial, helvetica, sans-serif" transform="matrix(1,0,0,1,60.5,9)"><tspan dy="0" class="v-line waiting">Alto rendimento</tspan><tspan dy="1em" x="0" class="v-line waiting">esportivo</tspan></text></g><g model-id="1221ce7e-8e6a-4317-8e99-38c5d5664034" id="j_174" class="joint-cell joint-type-goal joint-element joint-theme-default waiting" data-type="Goal" fill="#ffffff" stroke="none" transform="translate(954,259)" style="cursor: move;"><g class="scalable waiting" transform="scale(0.7816105769230769,1.4)" style="cursor: move;"><rect class="element waiting" id="v-981" fill="rgb(205,254,205)" height="30" rx="20" stroke="black" stroke-width="2" vector-effect="non-scaling-stroke" width="130"/></g><text class="content waiting" id="v-982" font-size="12" xml:space="preserve" y="0.8em" font-weight="bold" fill="#000000" text-anchor="middle" font-family="Arial, helvetica, sans-serif" transform="matrix(1,0,0,1,50.8,9.4)"><tspan dy="0" class="v-line waiting">Participar das</tspan><tspan dy="1em" x="0" class="v-line waiting">atividades</tspan></text></g><g model-id="bdc7fdc5-e28d-453f-9050-e55de9834a3e" id="j_177" class="joint-cell joint-type-resource joint-element joint-theme-default waiting" data-type="Resource" fill="#ffffff" stroke="none" transform="translate(1158,488)" style="cursor: move;"><g class="scalable waiting" transform="scale(0.8585336538461539,1.4)" style="cursor: move;"><rect class="element waiting" id="v-1041" fill="rgb(205,254,205)" height="30" rx="0" stroke="black" stroke-width="2" vector-effect="non-scaling-stroke" width="130"/></g><text class="content waiting" id="v-1042" font-size="12" xml:space="preserve" y="0.8em" font-weight="bold" fill="#000000" text-anchor="middle" font-family="Arial, helvetica, sans-serif" transform="matrix(1,0,0,1,55.8,3.4)"><tspan dy="0" class="v-line waiting">Estrutura para um</tspan><tspan dy="1em" x="0" class="v-line waiting">ambiente</tspan><tspan dy="1em" x="0" class="v-line waiting">satisfatório</tspan></text></g><g model-id="86e3f29e-c73e-4809-a77f-6b4376351434" id="j_180" class="joint-cell joint-type-quality joint-element joint-theme-default waiting" data-type="Quality" fill="#ffffff" stroke="none" transform="translate(960,481)" style="cursor: move;"><g class="scalable waiting" transform="scale(0.7852376964064524,1.0380876717711)" style="cursor: move;"><path class="element waiting" id="v-1101" d="m 60.637955,-4.0358 c 17.5174,2.2042 29.9953,-10.69554 41.892705,-4.7858 22.34142,10.8714 11.2203,43.7743 -2.25,47.7322 -8.276505,2.9084 -13.960205,5.1934 -46.142805,-2.1786 -6.7454,-2.2317 -28.2652,6.0799 -35.4643,4.7143 C 9.072156,39.4809 6.491756,33.7693 3.744956,28.482 c -6.3069,-15.1266 -2.5738,-28.0439 7.981099,-34.7856 10.5549,-6.74179 27.9316,-7.30796 48.9119,2.2678 z" fill="rgb(205,254,205)" stroke="black" stroke-width="2" vector-effect="non-scaling-stroke" transform="matrix(1,0,0,1,-0.7,11.3)"/></g><text class="content waiting" id="v-1102" font-size="12" xml:space="preserve" y="0.8em" font-weight="bold" text-anchor="middle" fill="#000000" font-family="Arial, helvetica, sans-serif" transform="matrix(1,0,0,1,45,11.6)"><tspan dy="0" class="v-line waiting">Processo de</tspan><tspan dy="1em" x="0" class="v-line waiting">cadastro</tspan><tspan dy="1em" x="0" class="v-line waiting">rápido</tspan></text></g><g model-id="12f0918a-60e5-4952-a99c-873d5d982a5a" id="j_183" class="joint-cell joint-type-resource joint-element joint-theme-default waiting" data-type="Resource" fill="#ffffff" stroke="none" transform="translate(953,395)" style="cursor: move;"><g class="scalable waiting" transform="scale(0.8123798076923077,1.6333333333333333)" style="cursor: move;"><rect class="element waiting" id="v-1137" fill="rgb(205,254,205)" height="30" rx="0" stroke="black" stroke-width="2" vector-effect="non-scaling-stroke" width="130"/></g><text class="content waiting" id="v-1138" font-size="12" xml:space="preserve" y="0.8em" font-weight="bold" fill="#000000" text-anchor="middle" font-family="Arial, helvetica, sans-serif" transform="matrix(1,0,0,1,52.8,6.9)"><tspan dy="0" class="v-line waiting">Informações</tspan><tspan dy="1em" x="0" class="v-line waiting">sobre o processo</tspan><tspan dy="1em" x="0" class="v-line waiting">de cadastro</tspan></text></g><g model-id="313a65b3-eb9a-49d3-b191-4e7ca9225934" id="j_187" class="joint-cell joint-type-resource joint-element joint-theme-default waiting" data-type="Resource" fill="#ffffff" stroke="none" transform="translate(1454,390)" style="cursor: move;"><g class="scalable waiting" transform="scale(0.8816105769230769,1.6)" style="cursor: move;"><rect class="element waiting" id="v-1220" fill="rgb(205,254,205)" height="30" rx="0" stroke="black" stroke-width="2" vector-effect="non-scaling-stroke" width="130"/></g><text class="content waiting" id="v-1221" font-size="12" xml:space="preserve" y="0.8em" font-weight="bold" fill="#000000" text-anchor="middle" font-family="Arial, helvetica, sans-serif" transform="matrix(1,0,0,1,57.3,6.4)"><tspan dy="0" class="v-line waiting">Instrumentos de</tspan><tspan dy="1em" x="0" class="v-line waiting">trabalho com</tspan><tspan dy="1em" x="0" class="v-line waiting">qualidade</tspan></text></g></g><g id="v-5" class="joint-tools-container waiting" style="cursor: move;" transform="matrix(1,0,0,1,-291,-171)"><g class="joint-tools joint-theme-default waiting" style="cursor: move;"><g class="joint-tool joint-theme-default waiting" data-tool-name="vertices" model-id="bb0f8d57-32fe-4c4b-9e3e-2d572ba9d084" style="cursor: move; display: none;"><path fill="none" stroke="transparent" stroke-width="10" cursor="cell" joint-selector="connection" d="M 1288.84 372 L 1351.72 459.19" class="joint-vertices-path waiting"/></g></g><g class="joint-tools joint-theme-default waiting" style="cursor: move;"><g class="joint-tool joint-theme-default waiting" data-tool-name="vertices" model-id="400ecb40-27b3-428c-a09a-5ae44f4ba29d" style="cursor: move; display: none;"><path fill="none" stroke="transparent" stroke-width="10" cursor="cell" joint-selector="connection" d="M 1360.36 486.21 C 1357.5095555555554 491.05466666666666 1354.659111111111 495.8993333333333 1359 503 C 1363.340888888889 510.1006666666667 1374.873111111111 519.4573333333334 1385 530 C 1395.126888888889 540.5426666666666 1403.8484444444443 552.2713333333334 1412.57 564" class="joint-vertices-path waiting"/><circle r="6" fill="#33334F" stroke="#FFFFFF" stroke-width="2" cursor="move" class="joint-marker-vertex joint-theme-default waiting" cx="1359" cy="503" model-id="400ecb40-27b3-428c-a09a-5ae44f4ba29d"/><circle r="6" fill="#33334F" stroke="#FFFFFF" stroke-width="2" cursor="move" class="joint-marker-vertex joint-theme-default waiting" cx="1385" cy="530" model-id="400ecb40-27b3-428c-a09a-5ae44f4ba29d"/></g></g><g class="joint-tools joint-theme-default waiting" style="cursor: move;"><g class="joint-tool joint-theme-default waiting" data-tool-name="vertices" model-id="a3a801eb-b02d-4836-94ba-ad778642bcb0" style="cursor: move; display: none;"><path fill="none" stroke="transparent" stroke-width="10" cursor="cell" joint-selector="connection" d="M 674 346.33 L 952.27 348.6" class="joint-vertices-path waiting"/></g></g><g class="joint-tools joint-theme-default waiting" style="cursor: move;"><g class="joint-tool joint-theme-default waiting" data-tool-name="vertices" model-id="3ec7bc66-683e-4466-8035-867477dbbfcc" style="cursor: move; display: none;"><path fill="none" stroke="transparent" stroke-width="10" cursor="cell" joint-selector="connection" d="M 1050.66 345.76 L 1220 334.63" class="joint-vertices-path waiting"/></g></g><g class="joint-tools joint-theme-default waiting" style="cursor: move;"><g class="joint-tool joint-theme-default waiting" data-tool-name="vertices" model-id="c308075c-7e8f-4762-a5c7-b6ba74ac0163" style="cursor: move; display: none;"><path fill="none" stroke="transparent" stroke-width="10" cursor="cell" joint-selector="connection" d="M 661 302.57 L 958.26 217.64" class="joint-vertices-path waiting"/></g></g><g class="joint-tools joint-theme-default waiting" style="cursor: move;"><g class="joint-tool joint-theme-default waiting" data-tool-name="vertices" model-id="d284d149-5449-4041-9592-2cf8d427572f" style="cursor: move; display: none;"><path fill="none" stroke="transparent" stroke-width="10" cursor="cell" joint-selector="connection" d="M 1036.27 225.13 L 1220 312.89" class="joint-vertices-path waiting"/></g></g><g class="joint-tools joint-theme-default waiting" style="cursor: move;"><g class="joint-tool joint-theme-default waiting" data-tool-name="vertices" model-id="28d9f026-3be5-430a-b807-a9e34e991fae" style="display: none; cursor: move;"><path fill="none" stroke="transparent" stroke-width="10" cursor="cell" joint-selector="connection" d="M 514 685 L 366.87 474.81" class="joint-vertices-path waiting"/></g></g><g class="joint-tools joint-theme-default waiting" style="cursor: move;"><g class="joint-tool joint-theme-default waiting" data-tool-name="vertices" model-id="706f1f6f-de80-4be7-aa0b-b572d994c721" style="cursor: move; display: none;"><path fill="none" stroke="transparent" stroke-width="10" cursor="cell" joint-selector="connection" d="M 389.41 436.79 L 581 335.21" class="joint-vertices-path waiting"/></g></g><g class="joint-tools joint-theme-default waiting" style="cursor: move;"><g class="joint-tool joint-theme-default waiting" data-tool-name="vertices" model-id="8d87a0f6-c189-4b20-a598-4b81bee97ea9" style="display: none; cursor: move;"><path fill="none" stroke="transparent" stroke-width="10" cursor="cell" joint-selector="connection" d="M 532.32 685 L 482.84 480.61" class="joint-vertices-path waiting"/></g></g><g class="joint-tools joint-theme-default waiting" style="cursor: move;"><g class="joint-tool joint-theme-default waiting" data-tool-name="vertices" model-id="e66da4fe-991e-4d96-aece-c7185217f617" style="cursor: move; display: none;"><path fill="none" stroke="transparent" stroke-width="10" cursor="cell" joint-selector="connection" d="M 496.62 442.59 L 582.31 354" class="joint-vertices-path waiting"/></g></g><g class="joint-tools joint-theme-default waiting" style="cursor: move;"><g class="joint-tool joint-theme-default waiting" data-tool-name="vertices" model-id="d79d4069-de56-499e-8a44-928b9aecd722" style="cursor: move; display: none;"><path fill="none" stroke="transparent" stroke-width="10" cursor="cell" joint-selector="connection" d="M 585.8 626 C 599.6766666666667 576.4908333333334 613.5533333333334 526.9816666666668 619 503 C 624.4466666666666 479.01833333333326 621.4633333333334 480.56416666666667 618.48 482.11" class="joint-vertices-path waiting"/><circle r="6" fill="#33334F" stroke="#FFFFFF" stroke-width="2" cursor="move" class="joint-marker-vertex joint-theme-default waiting" cx="619" cy="503" model-id="d79d4069-de56-499e-8a44-928b9aecd722"/></g></g><g class="joint-tools joint-theme-default waiting" style="cursor: move;"><g class="joint-tool joint-theme-default waiting" data-tool-name="vertices" model-id="98bbd28a-a87e-48ad-b5a6-fe72df035c1d" style="cursor: move; display: none;"><path fill="none" stroke="transparent" stroke-width="10" cursor="cell" joint-selector="connection" d="M 618.4 456.09 L 620.27 354" class="joint-vertices-path waiting"/></g></g><g class="joint-tools joint-theme-default waiting" style="cursor: move;"><g class="joint-tool joint-theme-default waiting" data-tool-name="vertices" model-id="29c13dd7-186a-46a2-88e7-57e90ac1c932" style="cursor: move; display: none;"><path fill="none" stroke="transparent" stroke-width="10" cursor="cell" joint-selector="connection" d="M 654.5 354 L 745.45 462.59" class="joint-vertices-path waiting"/></g></g><g class="joint-tools joint-theme-default waiting" style="cursor: move;"><g class="joint-tool joint-theme-default waiting" data-tool-name="vertices" model-id="dcf45c13-6391-446d-87e8-7704b3e67e7c" style="cursor: move; display: none;"><path fill="none" stroke="transparent" stroke-width="10" cursor="cell" joint-selector="connection" d="M 743.95 488.61 L 613.1 626" class="joint-vertices-path waiting"/></g></g><g class="joint-tools joint-theme-default waiting" style="cursor: move;"><g class="joint-tool joint-theme-default waiting" data-tool-name="vertices" model-id="a6803947-c452-4b0a-bdd4-bfc1cc92f774" style="cursor: move; display: none;"><path fill="none" stroke="transparent" stroke-width="10" cursor="cell" joint-selector="connection" d="M 661 310.46 L 965.11 283.53" class="joint-vertices-path waiting"/></g></g><g class="joint-tools joint-theme-default waiting" style="cursor: move;"><g class="joint-tool joint-theme-default waiting" data-tool-name="vertices" model-id="ab0b96bb-49a6-4a1d-bd72-e3c323a1a28c" style="cursor: move; display: none;"><path fill="none" stroke="transparent" stroke-width="10" cursor="cell" joint-selector="connection" d="M 1044.82 288.13 L 1220 323.84" class="joint-vertices-path waiting"/></g></g><g class="joint-tools joint-theme-default waiting" style="cursor: move;"><g class="joint-tool joint-theme-default waiting" data-tool-name="vertices" model-id="fc0ceaea-56c2-4ff8-993d-d0d3c9178967" style="cursor: move; display: none;"><path fill="none" stroke="transparent" stroke-width="10" cursor="cell" joint-selector="connection" d="M 1249.6 372 L 1218.9 489.99" class="joint-vertices-path waiting"/></g></g><g class="joint-tools joint-theme-default waiting" style="cursor: move;"><g class="joint-tool joint-theme-default waiting" data-tool-name="vertices" model-id="82a6b965-f9ed-418a-8fcd-dbd84c20fada" style="cursor: move; display: none;"><path fill="none" stroke="transparent" stroke-width="10" cursor="cell" joint-selector="connection" d="M 1260.19 528.01 L 1405 587.55" class="joint-vertices-path waiting"/></g></g><g class="joint-tools joint-theme-default waiting" style="cursor: move;"><g class="joint-tool joint-theme-default waiting" data-tool-name="vertices" model-id="b8e21d3f-70f4-4d8e-95ac-ad4e1b3e77a2" style="cursor: move; display: none;"><path fill="none" stroke="transparent" stroke-width="10" cursor="cell" joint-selector="connection" d="M 661 334.43 L 969.31 491.89" class="joint-vertices-path waiting"/></g></g><g class="joint-tools joint-theme-default waiting" style="cursor: move;"><g class="joint-tool joint-theme-default waiting" data-tool-name="vertices" model-id="50e6bb08-d65d-4d2d-a66b-6dd6734b2909" style="cursor: move; display: none;"><path fill="none" stroke="transparent" stroke-width="10" cursor="cell" joint-selector="connection" d="M 1032.34 491.19 L 1220 359.97" class="joint-vertices-path waiting"/></g></g><g class="joint-tools joint-theme-default waiting" style="cursor: move;"><g class="joint-tool joint-theme-default waiting" data-tool-name="vertices" model-id="926bd473-9e68-410d-93f1-bc4da18d9fdd" style="cursor: move; display: none;"><path fill="none" stroke="transparent" stroke-width="10" cursor="cell" joint-selector="connection" d="M 661 324.96 L 955.78 405.71" class="joint-vertices-path waiting"/></g></g><g class="joint-tools joint-theme-default waiting" style="cursor: move;"><g class="joint-tool joint-theme-default waiting" data-tool-name="vertices" model-id="3e7f58f5-d42e-410c-ad4f-48fa05d315f3" style="cursor: move; display: none;"><path fill="none" stroke="transparent" stroke-width="10" cursor="cell" joint-selector="connection" d="M 1056.49 402.15 L 1220 345.79" class="joint-vertices-path waiting"/></g></g><g class="joint-tools joint-theme-default waiting" style="cursor: move;"><g class="joint-tool joint-theme-default waiting" data-tool-name="vertices" model-id="75ad7468-a347-4108-b42b-7ef9bd3591aa" style="cursor: move; display: none;"><path fill="none" stroke="transparent" stroke-width="10" cursor="cell" joint-selector="connection" d="M 1300 345.04 L 1464.61 398.72" class="joint-vertices-path waiting"/></g></g><g class="joint-tools joint-theme-default waiting" style="cursor: move;"><g class="joint-tool joint-theme-default waiting" data-tool-name="vertices" model-id="1ca4b32a-e984-42ec-b71c-9ab018a74d49" style="cursor: move; display: none;"><path fill="none" stroke="transparent" stroke-width="10" cursor="cell" joint-selector="connection" d="M 1504.81 433.01 L 1458.99 564" class="joint-vertices-path waiting"/></g></g></g></svg>
